<svg width="50" height="53" viewBox="0 0 50 53" fill="none" xmlns="http://www.w3.org/2000/svg">
<g clip-path="url(#clip0_444_12)">
<rect width="50" height="53" fill="#040F16"/>
<path d="M14.8691 37V6.1748H15.3877L17.9229 12.3975V37H14.8691ZM14.8691 -1.5459V-3.33203H17.5195L32.2119 32.2754L43.8506 6.00195H44.4268V12.3398L33.5371 37H30.8867L14.8691 -1.5459ZM47.0771 37V-3.33203H50.1309V37H47.0771Z" fill="#00356F"/>
<path d="M21.6523 21.1172H24.8481L33 41.4028L41.1348 21.1172H44.3477L34.2305 46H31.7354L21.6523 21.1172ZM20.6099 21.1172H23.4297L23.8911 36.293V46H20.6099V21.1172ZM42.5532 21.1172H45.373V46H42.0918V36.293L42.5532 21.1172Z" fill="white"/>
<path d="M21.6523 21.1172V20.1172H20.1681L20.7255 21.4927L21.6523 21.1172ZM24.8481 21.1172L25.776 20.7443L25.524 20.1172H24.8481V21.1172ZM33 41.4028L32.0721 41.7757L33.001 44.0871L33.9282 41.775L33 41.4028ZM41.1348 21.1172V20.1172H40.4584L40.2066 20.745L41.1348 21.1172ZM44.3477 21.1172L45.274 21.4938L45.8337 20.1172H44.3477V21.1172ZM34.2305 46V47H34.9034L35.1568 46.3767L34.2305 46ZM31.7354 46L30.8086 46.3756L31.0616 47H31.7354V46ZM20.6099 21.1172V20.1172H19.6099V21.1172H20.6099ZM23.4297 21.1172L24.4292 21.0868L24.3997 20.1172H23.4297V21.1172ZM23.8911 36.293H24.8911V36.2778L24.8907 36.2626L23.8911 36.293ZM23.8911 46V47H24.8911V46H23.8911ZM20.6099 46H19.6099V47H20.6099V46ZM42.5532 21.1172V20.1172H41.5832L41.5537 21.0868L42.5532 21.1172ZM45.373 21.1172H46.373V20.1172H45.373V21.1172ZM45.373 46V47H46.373V46H45.373ZM42.0918 46H41.0918V47H42.0918V46ZM42.0918 36.293L41.0923 36.2626L41.0918 36.2778V36.293H42.0918ZM21.6523 22.1172H24.8481V20.1172H21.6523V22.1172ZM23.9203 21.4901L32.0721 41.7757L33.9279 41.03L25.776 20.7443L23.9203 21.4901ZM33.9282 41.775L42.0629 21.4894L40.2066 20.745L32.0718 41.0306L33.9282 41.775ZM41.1348 22.1172H44.3477V20.1172H41.1348V22.1172ZM43.4213 20.7405L33.3041 45.6233L35.1568 46.3767L45.274 21.4938L43.4213 20.7405ZM34.2305 45H31.7354V47H34.2305V45ZM32.6622 45.6244L22.5791 20.7416L20.7255 21.4927L30.8086 46.3756L32.6622 45.6244ZM20.6099 22.1172H23.4297V20.1172H20.6099V22.1172ZM22.4301 21.1476L22.8916 36.3234L24.8907 36.2626L24.4292 21.0868L22.4301 21.1476ZM22.8911 36.293V46H24.8911V36.293H22.8911ZM23.8911 45H20.6099V47H23.8911V45ZM21.6099 46V21.1172H19.6099V46H21.6099ZM42.5532 22.1172H45.373V20.1172H42.5532V22.1172ZM44.373 21.1172V46H46.373V21.1172H44.373ZM45.373 45H42.0918V47H45.373V45ZM43.0918 46V36.293H41.0918V46H43.0918ZM43.0913 36.3234L43.5528 21.1476L41.5537 21.0868L41.0923 36.2626L43.0913 36.3234Z" fill="#040F16"/>
</g>
<defs>
<clipPath id="clip0_444_12">
<rect width="50" height="53" fill="white"/>
</clipPath>
</defs>
</svg>
